<svg width="48" height="48" viewBox="0 0 48 48" fill="none" xmlns="http://www.w3.org/2000/svg">
<rect width="48" height="48" fill="#C08C69"/>
<path d="M33.3333 28.6087V14.5217C33.3333 12.5766 31.7665 11 29.8333 11H13.5C11.5668 11 10 12.5766 10 14.5217V20.3913H14.6667V34.4783C14.6667 36.4234 16.2335 38 18.1667 38H34.5C36.4332 38 38 36.4234 38 34.4783V28.6087H33.3333ZM14.6667 18.0435H12.3333V14.5217C12.3333 13.8749 12.8572 13.3478 13.5 13.3478C14.144 13.3478 14.6667 13.8737 14.6667 14.5217V18.0435ZM17 34.4783V14.5217C17 14.1109 16.93 13.7153 16.8005 13.3478H29.8333C30.4762 13.3478 31 13.8749 31 14.5217V28.6087H19.3333V34.4783C19.3333 35.1263 18.8107 35.6522 18.1667 35.6522C17.5238 35.6522 17 35.1251 17 34.4783ZM35.6667 34.4783C35.6667 35.1251 35.1428 35.6522 34.5 35.6522H21.4672C21.5967 35.2847 21.6667 34.8891 21.6667 34.4783V30.9565H35.6667V34.4783ZM28.6667 20.3913H19.3333V18.0435H28.6667V20.3913ZM28.6667 25.087H19.3333V22.7391H28.6667V25.087Z" fill="white"/>
</svg>
